<?xml version="1.0" encoding="iso-8859-1"?>
<!-- Generator: Adobe Illustrator 18.1.1, SVG Export Plug-In . SVG Version: 6.00 Build 0)  -->
<svg xmlns="http://www.w3.org/2000/svg" xmlns:xlink="http://www.w3.org/1999/xlink" version="1.1" id="Capa_1" x="0px" y="0px" viewBox="0 0 52.134 52.134" style="enable-background:new 0 0 52.134 52.134;" xml:space="preserve" width="512px" height="512px">
<g>
	<path d="M26.067,0C11.693,0,0,11.693,0,26.067s11.693,26.067,26.067,26.067s26.067-11.693,26.067-26.067   S40.441,0,26.067,0z M45.056,15.662c1.139,0,2.184,0.746,2.663,1.899c0.351,0.852,0.328,1.814-0.065,2.573   c-0.389,0.756-1.118,1.273-2.104,1.5c-1.646,0.376-8.005,1.712-12.646,2.683c-0.855,0.178-1.681,0.297-2.287,0.328   c0.387-0.347,1.005-0.835,1.849-1.387c2.725-1.782,9.236-6.037,10.84-7.043C43.89,15.848,44.479,15.662,45.056,15.662z    M40.457,9.022c0.79,0,1.583,0.342,2.177,0.936c0.651,0.651,0.998,1.549,0.926,2.403c-0.068,0.846-0.542,1.604-1.369,2.191   c-1.342,0.953-6.535,4.507-10.657,7.318c-0.834,0.57-1.519,0.954-1.988,1.178c0.224-0.47,0.609-1.155,1.178-1.989   c2.81-4.117,6.359-9.308,7.318-10.656C38.685,9.5,39.52,9.022,40.457,9.022z M33.789,4.633c0.422,0,0.853,0.086,1.245,0.249   c0.852,0.352,1.515,1.05,1.775,1.865c0.259,0.808,0.11,1.689-0.428,2.546c-0.876,1.397-4.314,6.665-7.044,10.84   c-0.551,0.845-1.036,1.461-1.384,1.848c0.026-0.519,0.12-1.3,0.327-2.287c0.666-3.19,2.263-10.807,2.682-12.645   C31.307,5.536,32.365,4.633,33.789,4.633z M28.808,26.53c0,1.512-1.229,2.742-2.741,2.742c-1.512,0-2.742-1.23-2.742-2.742   c0-1.512,1.23-2.742,2.742-2.742S28.808,25.018,28.808,26.53z M23.712,4.139c0.552-0.654,1.431-1.043,2.353-1.043   s1.801,0.389,2.353,1.043c0.549,0.649,0.749,1.519,0.58,2.517c-0.295,1.74-1.605,8.711-2.36,12.711   c-0.218,1.153-0.428,2.017-0.573,2.516c-0.146-0.499-0.355-1.363-0.573-2.516c-0.756-4.005-2.067-10.98-2.359-12.71   C22.964,5.659,23.165,4.788,23.712,4.139z M15.324,6.744c0.26-0.815,0.923-1.513,1.775-1.865c0.392-0.162,0.823-0.249,1.245-0.249   c1.424,0,2.48,0.902,2.825,2.416c0.419,1.825,2.017,9.451,2.683,12.644c0.207,0.988,0.299,1.768,0.328,2.287   c-0.346-0.385-0.833-1.002-1.386-1.847c-2.731-4.178-6.17-9.448-7.042-10.84C15.215,8.434,15.067,7.553,15.324,6.744z M9.496,9.961   c0.594-0.594,1.388-0.936,2.177-0.936c0.937,0,1.771,0.477,2.414,1.381c0.75,1.056,3.213,4.641,7.318,10.655   c0.569,0.834,0.952,1.519,1.176,1.988c-0.467-0.226-1.152-0.61-1.985-1.177c-6.015-4.105-9.601-6.568-10.656-7.318   c-0.826-0.586-1.3-1.344-1.371-2.189C8.498,11.511,8.845,10.612,9.496,9.961z M4.416,17.563c0.479-1.154,1.524-1.899,2.663-1.899   c0.577,0,1.166,0.186,1.75,0.552c1.098,0.688,4.643,2.993,10.84,7.044c0.845,0.551,1.462,1.038,1.85,1.385   c-0.606-0.031-1.434-0.149-2.289-0.327c-7.266-1.522-11.402-2.4-12.645-2.684c-0.987-0.227-1.715-0.745-2.104-1.5   C4.087,19.375,4.064,18.414,4.416,17.563z M2.633,26.531c0-1.486,0.991-2.992,2.888-2.992c0.213,0,0.438,0.02,0.673,0.059   c1.618,0.273,7.804,1.435,12.709,2.36c1.154,0.217,2.018,0.426,2.518,0.571c-0.501,0.146-1.365,0.355-2.518,0.573   c-4.905,0.926-11.092,2.086-12.709,2.36C3.872,29.858,2.633,28.185,2.633,26.531z M4.415,35.497   c-0.351-0.851-0.328-1.812,0.065-2.572c0.389-0.756,1.117-1.273,2.104-1.5c1.715-0.392,8.659-1.851,12.645-2.684   c0.855-0.178,1.681-0.297,2.289-0.328c-0.387,0.348-1.004,0.835-1.849,1.386c-6.105,3.993-9.752,6.363-10.84,7.045   C7.093,37.935,5.137,37.237,4.415,35.497z M11.677,44.038c-0.79,0-1.583-0.342-2.177-0.936c-0.651-0.651-0.998-1.549-0.926-2.403   c0.068-0.847,0.542-1.604,1.369-2.191c1.056-0.75,4.641-3.213,10.655-7.318c0.834-0.569,1.519-0.952,1.988-1.176   c-0.224,0.469-0.608,1.154-1.176,1.987c-4.105,6.014-6.568,9.6-7.318,10.656C13.448,43.561,12.613,44.038,11.677,44.038z    M18.344,48.428c-0.423,0-0.853-0.086-1.245-0.249c-0.852-0.352-1.515-1.05-1.775-1.865c-0.257-0.809-0.11-1.69,0.429-2.547   c0.683-1.091,3.053-4.739,7.044-10.84c0.551-0.845,1.038-1.461,1.385-1.848c-0.027,0.519-0.12,1.3-0.328,2.287   c-0.667,3.191-2.263,10.809-2.682,12.644C20.824,47.525,19.768,48.428,18.344,48.428z M28.422,48.92   c-0.553,0.654-1.433,1.044-2.355,1.044s-1.801-0.389-2.353-1.043c-0.548-0.649-0.748-1.519-0.579-2.52   c0.292-1.728,1.603-8.705,2.359-12.71c0.218-1.153,0.428-2.017,0.573-2.517c0.145,0.501,0.354,1.364,0.573,2.517   c0.755,4,2.065,10.972,2.36,12.71C29.17,47.401,28.969,48.271,28.422,48.92z M36.811,46.316c-0.26,0.815-0.923,1.513-1.775,1.865   c-0.394,0.162-0.825,0.248-1.248,0.248c-1.423,0-2.48-0.903-2.825-2.416c-0.392-1.712-1.851-8.657-2.684-12.644   c-0.207-0.987-0.299-1.768-0.328-2.287c0.348,0.387,0.835,1.003,1.387,1.848c2.729,4.173,6.167,9.442,7.043,10.84   C36.92,44.626,37.068,45.507,36.811,46.316z M42.639,43.099c-0.594,0.594-1.389,0.936-2.177,0.936   c-0.94,0.001-1.775-0.476-2.416-1.38c-0.957-1.348-4.509-6.538-7.319-10.655c-0.569-0.834-0.952-1.519-1.176-1.989   c0.469,0.224,1.154,0.61,1.987,1.177c4.12,2.812,9.315,6.365,10.657,7.318c0.826,0.586,1.3,1.345,1.371,2.19   C43.637,41.549,43.29,42.447,42.639,43.099z M47.718,35.497c-0.72,1.738-2.675,2.439-4.413,1.347   c-1.397-0.876-6.665-4.314-10.84-7.044c-0.845-0.552-1.462-1.039-1.85-1.386c0.606,0.031,1.433,0.15,2.287,0.328   c4.876,1.021,11.028,2.315,12.645,2.684c0.987,0.227,1.715,0.746,2.105,1.5C48.047,33.686,48.07,34.647,47.718,35.497z    M45.94,29.461c-1.283-0.216-5.558-1.01-12.71-2.36c-1.153-0.216-2.017-0.425-2.517-0.571c0.5-0.145,1.364-0.354,2.517-0.573   c7.15-1.35,11.427-2.143,12.71-2.36c2.321-0.389,3.561,1.278,3.561,2.932C49.501,28.183,48.261,29.856,45.94,29.461z" fill="#567185"/>
</g>
<g>
</g>
<g>
</g>
<g>
</g>
<g>
</g>
<g>
</g>
<g>
</g>
<g>
</g>
<g>
</g>
<g>
</g>
<g>
</g>
<g>
</g>
<g>
</g>
<g>
</g>
<g>
</g>
<g>
</g>
</svg>
